#!OML:ASF E:\Style4\Style4.ASF
:FULLY-SPECIFIED
:DEGREES
2442
root 0.0889774 18.0317 -0.944446 1.74087 -1.7794 3.54969
lowerback 5.32569 3.52229 3.5729
upperback -1.09522 5.00902 1.77922
thorax -3.96945 2.4225 -0.584327
lowerneck -2.08346 0.21316 -1.27672
upperneck -6.22969 0.434592 2.80737
head -1.5925 0.20233 1.08632
rclavicle 4.75468e-014 3.18055e-014
rhumerus 48.2982 -3.46391 -52.7817
rradius 79.3296
rwrist -7.98681
rhand -35.4099 33.8289
rfingers 7.12502
rthumb -8.54036 4.02164
lclavicle 4.75468e-014 3.18055e-014
lhumerus 39.6873 12.5762 41.7135
lradius 90.1263
lwrist 15.0932
lhand -23.3409 24.0964
lfingers 7.12502
lthumb 3.11391 54.0534
rfemur -11.0969 1.69993 14.8086
rtibia 25.7245
rfoot -15.3235 -16.9299
rtoes -12.5025
lfemur -7.91216 0.396758 -23.6563
ltibia 20.8049
lfoot -15.5714 12.2315
ltoes -13.1289
2443
root 0.0901744 18.032 -0.941731 1.75347 -1.72388 3.51936
lowerback 5.28183 3.52055 3.59139
upperback -1.07915 5.00569 1.79704
thorax -3.92819 2.42162 -0.572253
lowerneck -2.01121 0.237272 -1.24334
upperneck -6.29951 0.461403 2.67748
head -1.62677 0.216252 1.03989
rclavicle 3.87879e-014 4.29375e-014
rhumerus 48.3744 -3.69308 -52.8091
rradius 78.814
rwrist -8.03033
rhand -35.4787 33.9125
rfingers 7.12502
rthumb -8.60675 4.10793
lclavicle 3.87879e-014 4.29375e-014
lhumerus 39.6147 12.8173 41.8302
lradius 89.5799
lwrist 15.2336
lhand -23.0385 24.1289
lfingers 7.12502
lthumb 3.40587 54.0815
rfemur -11.0759 1.69344 14.8354
rtibia 25.6959
rfoot -15.3355 -16.9592
rtoes -12.2858
lfemur -7.96147 0.358628 -23.6275
ltibia 20.8819
lfoot -15.6464 12.2772
ltoes -13.4064
2444
root 0.0918397 18.0309 -0.938249 1.77635 -1.68543 3.48664
lowerback 5.22765 3.53907 3.6235
upperback -1.07216 5.02946 1.79984
thorax -3.88719 2.43362 -0.584804
lowerneck -1.98621 0.240204 -1.26751
upperneck -6.33674 0.466013 2.67529
head -1.64324 0.21883 1.04358
rclavicle -6.19711e-014 1.11319e-014
rhumerus 48.3979 -3.96715 -52.8372
rradius 78.2983
rwrist -8.1618
rhand -35.4698 33.903
rfingers 7.12502
rthumb -8.59816 4.09812
lclavicle -6.19711e-014 1.11319e-014
lhumerus 39.5326 12.9769 41.9154
lradius 89.0127
lwrist 15.4237
lhand -22.8642 24.1386
lfingers 7.12502
lthumb 3.57421 54.0884
rfemur -11.0759 1.69231 14.8652
rtibia 25.6847
rfoot -15.2957 -17.0048
rtoes -12.1217
lfemur -8.02307 0.329564 -23.5992
ltibia 20.9627
lfoot -15.6918 12.3028
ltoes -13.5715
2445
root 0.0935834 18.03 -0.93596 1.78083 -1.62688 3.3953
lowerback 5.22371 3.54808 3.72554
upperback -1.0695 5.04808 1.80742
thorax -3.87372 2.44081 -0.634162
lowerneck -1.89 0.247545 -1.26142
upperneck -6.49865 0.47929 2.68636
head -1.71217 0.223808 1.0471
rclavicle -2.49351e-014 -3.02153e-014
rhumerus 48.411 -4.24012 -52.7879
rradius 77.8145
rwrist -8.41225
rhand -35.4747 33.7402
rfingers 7.12502
rthumb -8.60286 3.93544
lclavicle -2.49351e-014 -3.02153e-014
lhumerus 39.4659 13.1168 42.017
lradius 88.4996
lwrist 15.7299
lhand -22.9919 24.144
lfingers 7.12502
lthumb 3.45087 54.0958
rfemur -11.0566 1.69262 14.9651
rtibia 25.6981
rfoot -15.3265 -17.0334
rtoes -12.0814
lfemur -8.05738 0.298201 -23.5026
ltibia 21.0292
lfoot -15.7277 12.316
ltoes -13.7452
2446
root 0.0941975 18.0286 -0.934443 1.79252 -1.56039 3.4251
lowerback 5.21374 3.56634 3.719
upperback -1.06798 5.06966 1.76258
thorax -3.86218 2.45143 -0.677424
lowerneck -1.84507 0.267564 -1.25094
upperneck -6.60047 0.510284 2.72811
head -1.75364 0.237589 1.05896
rclavicle 3.4017e-014 4.77083e-015
rhumerus 48.4121 -4.57635 -52.7767
rradius 77.3301
rwrist -8.64085
rhand -35.3937 33.5689
rfingers 7.12502
rthumb -8.52475 3.76093
lclavicle 3.4017e-014 4.77083e-015
lhumerus 39.476 13.265 42.0938
lradius 88.0374
lwrist 16.07
lhand -22.9371 24.2052
lfingers 7.12502
lthumb 3.50386 54.1562
rfemur -11.0804 1.63052 14.9281
rtibia 25.7574
rfoot -15.3686 -17.0696
rtoes -12.4002
lfemur -8.07958 0.26886 -23.5374
ltibia 21.063
lfoot -15.7292 12.2393
ltoes -13.632
2447
root 0.0953269 18.0296 -0.933414 1.79413 -1.52232 3.42568
lowerback 5.22938 3.57812 3.73043
upperback -1.08181 5.0866 1.73864
thorax -3.8816 2.45876 -0.711217
lowerneck -1.8016 0.319742 -1.24518
upperneck -6.64355 0.580643 2.72518
head -1.77659 0.272125 1.05671
rclavicle 1.57537e-014 -1.27222e-014
rhumerus 48.4336 -4.88712 -52.8312
rradius 76.7801
rwrist -8.91093
rhand -35.2395 33.5351
rfingers 7.12502
rthumb -8.37587 3.72118
lclavicle 1.57537e-014 -1.27222e-014
lhumerus 39.4366 13.4195 42.1964
lradius 87.5762
lwrist 16.4443
lhand -22.6812 24.2567
lfingers 7.12502
lthumb 3.75093 54.2035
rfemur -11.0938 1.57347 14.934
rtibia 25.8207
rfoot -15.3246 -17.0298
rtoes -12.1935
lfemur -8.09748 0.25299 -23.5412
ltibia 21.0876
lfoot -15.6451 12.1478
ltoes -13.0993
